HIERARCHY
ROOT hip
{
	OFFSET 0.000000 0.000000 0.000000 
	CHANNELS 6 Xposition Yposition Zposition Xrotation Zrotation Yrotation
	JOINT abdomen
	{
		OFFSET 0.000000 3.402643 0.000000 
		CHANNELS 3 Xrotation Zrotation Yrotation
		JOINT chest
		{
			OFFSET 0.000000 8.438565 -0.680529 
			CHANNELS 3 Xrotation Zrotation Yrotation
			JOINT neck
			{
				OFFSET 0.000000 10.207942 -0.272212 
				CHANNELS 3 Xrotation Zrotation Yrotation
				JOINT head
				{
					OFFSET 0.000000 3.130431 0.000000 
					CHANNELS 3 Xrotation Zrotation Yrotation
					End Site
					{
						OFFSET 0.000000 3.130435 0.000000 
					}
				}
			}
			JOINT lCollar
			{
				OFFSET 3.470700 6.669187 -0.816635 
				CHANNELS 3 Yrotation Zrotation Xrotation
				JOINT lShldr
				{
					OFFSET 3.198488 0.000000 0.000000 
					CHANNELS 3 Zrotation Yrotation Xrotation
					JOINT lForeArm
					{
						OFFSET 10.139888 0.000000 0.000000 
						CHANNELS 3 Yrotation Zrotation Xrotation
						JOINT lHand
						{
							OFFSET 8.370511 0.000000 0.000000 
							CHANNELS 3 Zrotation Yrotation Xrotation
							End Site
							{
								OFFSET 4.083176 0.000000 0.000000 
							}
						}
					}
				}
			}
			JOINT rCollar
			{
				OFFSET -3.470700 6.669187 -0.816635 
				CHANNELS 3 Yrotation Zrotation Xrotation
				JOINT rShldr
				{
					OFFSET -3.198488 0.000000 0.000000 
					CHANNELS 3 Zrotation Yrotation Xrotation
					JOINT rForeArm
					{
						OFFSET -10.139888 0.000000 0.000000 
						CHANNELS 3 Yrotation Zrotation Xrotation
						JOINT rHand
						{
							OFFSET -8.370511 0.000000 0.000000 
							CHANNELS 3 Zrotation Yrotation Xrotation
							End Site
							{
								OFFSET -4.083176 0.000000 0.000000 
							}
						}
					}
				}
			}
		}
	}
	JOINT lThigh
	{
		OFFSET 5.308129 -1.633274 1.361059 
		CHANNELS 3 Xrotation Zrotation Yrotation
		JOINT lShin
		{
			OFFSET -2.041588 -20.007561 0.000000 
			CHANNELS 3 Xrotation Zrotation Yrotation
			JOINT lFoot
			{
				OFFSET 0.000000 -19.190928 -1.224953 
				CHANNELS 3 Xrotation Yrotation Zrotation
				End Site
				{
					OFFSET 0.000000 -2.449906 4.627600 
				}
			}
		}
	}
	JOINT rThigh
	{
		OFFSET -5.308129 -1.633274 1.361059 
		CHANNELS 3 Xrotation Zrotation Yrotation
		JOINT rShin
		{
			OFFSET 2.041588 -20.007561 0.000000 
			CHANNELS 3 Xrotation Zrotation Yrotation
			JOINT rFoot
			{
				OFFSET 0.000000 -19.190928 -1.224953 
				CHANNELS 3 Xrotation Yrotation Zrotation
				End Site
				{
					OFFSET 0.000000 -2.449906 4.627600 
				}
			}
		}
	}
}
MOTION
Frames: 20
Frame Time: 0.016667
0.130678 43.829781 0.030996 0.586169 -1.611240 10.071100 -19.742100 -1.109360 2.047510 18.749800 -0.819905 0.807111 19.403099 3.982880 3.846360 12.412600 7.026480 2.052690 2.000000 -2.000000 0.000000 95.595497 -175.873001 -2.568290 29.375299 -0.333987 0.067123 0.047426 -0.029798 -147.625000 -2.000000 2.000000 0.000000 85.710403 -8.317070 166.220001 -23.916300 0.339826 0.055428 -0.056496 -0.016100 -127.643997 -10.901495 -3.104077 -2.934701 26.509859 2.721951 2.020924 -19.391676 22.795298 6.758261 -4.427005 -0.026711 3.401016 35.993515 -3.235692 -2.418533 -16.766905 -21.422020 -8.116519 
0.687741 43.761456 0.230455 0.420022 -1.249970 12.754300 -19.441799 -1.048360 2.627110 18.915800 -1.034730 1.103850 20.403200 4.160400 4.596860 12.680900 7.146600 2.445690 2.000000 -2.000000 0.000000 95.517303 -175.923004 -1.826220 30.117500 -0.333108 0.068660 0.047857 -0.031999 -148.425995 -2.000000 2.000000 0.000000 85.817802 -9.038890 165.856995 -25.224899 0.338527 0.058267 -0.056207 -0.014263 -128.309006 -10.647134 -3.814823 -2.742556 26.512398 2.703388 2.036226 -18.136267 20.743820 5.497084 -5.371367 -0.715986 2.745170 39.485229 -3.075122 -2.635835 -14.974437 -22.497665 -7.721228 
1.184102 43.710026 0.416277 0.029301 -0.966797 15.106800 -19.127899 -0.923732 3.265300 18.857100 -1.190880 1.431810 21.485001 4.307000 5.297680 12.978200 7.236810 2.809690 2.000000 -2.000000 0.000000 95.614998 -176.186996 -1.875670 30.342100 -0.332838 0.069123 0.047787 -0.031650 -148.298996 -2.000000 2.000000 0.000000 85.642899 -9.636970 166.880997 -26.650700 0.337040 0.061327 -0.055571 -0.009603 -129.988007 -10.158347 -4.414937 -2.923760 26.617992 2.728170 2.040034 -17.124174 19.474014 4.587358 -6.654588 -0.979846 3.147571 43.584801 -2.844898 -2.873010 -12.058862 -24.031475 -6.815520 
1.672986 43.637325 0.590658 -0.341811 -0.527334 17.317600 -18.924200 -1.023760 3.777080 18.661400 -1.512840 1.680900 22.446100 4.461850 6.074780 13.146800 7.290990 3.221900 2.000000 -2.000000 0.000000 95.966698 -176.654007 -2.599440 29.892900 -0.333376 0.068196 0.047653 -0.030980 -148.054993 -2.000000 2.000000 0.000000 85.584999 -9.922610 167.925995 -27.959299 0.335607 0.064101 -0.055203 -0.006287 -131.179993 -9.588409 -5.080156 -2.719682 26.685766 2.737821 2.041115 -16.300982 17.856771 3.729169 -8.411431 -1.352475 3.859559 48.183884 -2.541146 -3.155273 -7.687259 -25.788797 -5.069347 
2.058441 43.551857 0.794203 -0.292972 0.283199 19.500500 -18.465200 -0.947244 4.174790 18.935301 -0.956648 1.872780 23.753799 4.949980 7.049810 13.559600 7.667040 3.670110 2.000000 -2.000000 0.000000 95.986504 -176.494003 -4.289120 28.564800 -0.334923 0.065431 0.047241 -0.028804 -147.264008 -2.000000 2.000000 0.000000 85.184601 -9.269770 168.552002 -28.838200 0.334610 0.065946 -0.055141 -0.005661 -131.404007 -9.143703 -6.135482 -2.799764 26.510183 2.718592 2.020113 -15.511687 16.595421 3.039953 -10.804437 -1.899069 4.472007 53.002926 -2.206954 -3.413923 -1.974203 -27.834272 -2.475192 
2.442390 43.502739 1.040554 -0.156259 0.615232 21.648701 -18.144100 -0.967384 4.537240 19.179501 -0.859127 2.042130 24.838600 5.342950 7.752140 13.862100 7.929170 4.010670 2.000000 -2.000000 0.000000 96.348297 -176.528000 -6.437640 27.070601 -0.336587 0.062278 0.046602 -0.025056 -145.906006 -2.000000 2.000000 0.000000 85.321098 -8.742240 168.475006 -30.058901 0.333178 0.068483 -0.055195 -0.006205 -131.209000 -8.814298 -6.710978 -3.085140 26.306179 2.696936 2.018621 -15.070015 15.191838 2.439949 -13.365940 -1.561374 5.348264 57.230312 -1.856581 -3.631608 3.340813 -29.416819 0.223210 
2.772901 43.442036 1.307197 -0.029299 0.673828 23.974300 -17.987499 -1.076570 4.606510 19.169800 -0.888412 2.062520 25.062599 5.349250 8.190540 13.732200 7.865070 4.255170 2.000000 -2.000000 0.000000 -83.348099 -3.449600 170.798996 25.019800 -0.338735 0.057882 0.045742 -0.018826 -143.660004 -2.000000 2.000000 0.000000 85.379601 -8.234730 168.602997 -31.494499 0.331425 0.071426 -0.054867 -0.012266 -132.537003 -8.848810 -6.976411 -3.503321 26.728920 2.704444 2.052959 -14.909904 13.700724 1.855232 -15.762955 -1.092447 5.427094 60.317940 -1.554299 -3.808086 5.491898 -25.486338 1.016137 
3.046344 43.344963 1.590293 0.058600 0.820312 26.055700 -17.842899 -1.314450 4.665950 18.964600 -1.015230 2.069230 25.294901 5.503400 8.671180 13.682500 7.847060 4.518680 2.000000 -2.000000 0.000000 -82.497704 -3.063110 169.039993 23.535400 -0.340191 0.054653 0.045617 -0.017740 -143.268997 -2.000000 2.000000 0.000000 85.594398 -7.756930 168.906998 -32.676102 0.329928 0.073815 -0.054772 -0.010957 -133.005997 -8.877083 -7.258539 -3.951334 27.349648 2.695790 2.089793 -15.046000 12.516943 1.405056 -17.825687 -0.504332 6.109684 61.881329 -1.371139 -3.882894 1.333212 -19.349815 -0.946914 
3.327222 43.202263 1.880305 0.488359 1.025350 27.879999 -17.638100 -1.563550 4.805940 18.945000 -1.112840 2.111380 25.544500 5.899110 8.987280 13.745900 8.009200 4.671620 2.000000 -2.000000 0.000000 -82.056900 -2.952200 166.343994 22.051001 -0.341563 0.051388 0.045393 -0.015591 -142.498001 -2.000000 2.000000 0.000000 85.526100 -7.182260 169.552994 -33.877300 0.328355 0.076211 -0.054540 -0.006752 -134.509995 -9.143274 -7.716369 -4.071256 28.023075 2.656374 2.148012 -15.178243 11.322196 1.002000 -19.821964 0.215796 7.759249 61.560966 -1.326767 -3.897902 -2.906798 -15.247843 -2.235297 
3.576714 43.063679 2.192976 1.054950 1.269320 29.486500 -17.327700 -1.801780 4.862210 19.062300 -1.015280 2.106560 25.135401 5.923110 9.071170 13.587100 7.974710 4.721540 2.000000 -2.000000 0.000000 -81.528198 -2.810630 164.214996 20.957300 -0.342520 0.048960 0.045300 -0.014611 -142.145996 -2.000000 2.000000 0.000000 85.340897 -6.569490 170.600006 -35.058998 0.326759 0.078536 -0.054464 -0.004593 -135.281006 -9.529066 -8.277381 -4.344300 28.755564 2.613859 2.213744 -15.705295 10.253478 0.659508 -21.570400 1.151266 10.235959 59.582855 -1.379099 -3.842854 -5.824440 -13.510983 -2.894969 
3.804806 42.988144 2.537977 0.976634 0.693259 30.734600 -16.997700 -1.884890 5.193300 19.052200 -1.532670 2.286330 24.396700 6.097530 8.850460 13.278900 7.876280 4.631770 2.000000 -2.000000 0.000000 -80.707199 -2.764240 163.151001 20.029499 -0.343295 0.046887 0.045395 -0.015618 -142.507996 -2.000000 2.000000 0.000000 85.468102 -6.249340 171.498993 -36.348000 0.324964 0.081033 -0.054438 -0.003554 -135.651993 -9.851266 -7.804609 -4.940926 29.797691 2.610258 2.273591 -15.993515 9.538191 0.413299 -23.028019 3.355935 13.050667 56.516434 -1.488658 -3.752725 -7.978427 -14.208008 -3.610536 
4.026100 42.928852 2.896471 1.386780 0.536952 32.083401 -16.668301 -2.094210 5.213840 19.071600 -1.698650 2.280340 23.766199 6.172230 8.687040 13.032000 7.862880 4.536680 2.000000 -2.000000 0.000000 -80.217796 -2.660330 161.606995 19.326401 -0.343860 0.045307 0.045218 -0.013685 -141.813995 -2.000000 2.000000 0.000000 -94.785599 -174.050995 -7.494650 -37.920300 0.322700 0.084024 -0.054417 -0.002461 -136.042999 -9.991894 -7.795428 -5.046709 30.005789 2.590045 2.284412 -16.040192 8.366302 0.002271 -24.351667 4.804523 16.432638 52.593971 -1.662672 -3.592725 -10.256192 -15.325377 -4.529664 
4.236409 42.899326 3.280297 1.826350 0.800375 33.580299 -16.169701 -2.379240 5.028640 19.071600 -1.679120 2.182180 23.442499 5.592240 8.254740 12.987600 7.651600 4.340600 2.000000 -2.000000 0.000000 -80.031502 -2.457150 160.766998 19.355700 -0.343837 0.045373 0.045152 -0.012894 -141.531006 -2.000000 2.000000 0.000000 -95.263702 -174.203003 -5.796060 -39.756302 0.319953 0.087437 -0.054411 -0.002023 -136.199005 -9.761409 -8.147429 -5.061049 29.800121 2.584225 2.276756 -16.082228 7.433373 -0.333437 -25.171961 5.569675 19.969423 47.992176 -1.869687 -3.378318 -11.428751 -15.425267 -4.936959 
4.496057 42.889790 3.685659 2.285240 0.487893 35.175800 -15.725700 -2.593930 4.531080 19.247400 -1.737830 1.924460 23.454201 4.366180 7.560450 13.075100 7.167150 4.071090 2.000000 -2.000000 0.000000 -80.098503 -2.294980 159.048004 19.531500 -0.343697 0.045768 0.044995 -0.010767 -140.768997 -2.000000 2.000000 0.000000 -95.780899 -174.188995 -3.989450 -41.855900 0.316679 0.091229 -0.054403 -0.001230 -136.481995 -9.757488 -8.070455 -5.276743 29.435793 2.592562 2.255783 -16.036373 6.535964 -0.687041 -25.960482 6.263344 23.199377 42.348976 -2.076543 -3.104999 -10.341475 -13.259337 -4.116729 
4.822095 42.953995 4.124148 2.871100 0.146301 36.980000 -15.378300 -2.813650 4.021020 19.354700 -2.011280 1.682790 23.638800 3.566320 6.996160 13.158200 6.914540 3.797910 2.000000 -2.000000 0.000000 -80.234802 -2.139670 158.628006 19.941601 -0.343367 0.046690 0.045027 -0.011231 -140.934998 -2.000000 2.000000 0.000000 -96.434898 -173.912003 -2.437410 -44.023899 0.313155 0.095016 -0.054407 0.001641 -137.507996 -9.546556 -8.018428 -5.571305 28.549496 2.612213 2.207017 -15.791681 5.458061 -1.093623 -26.571253 6.207834 25.831226 36.241814 -2.235921 -2.778580 -8.383551 -9.809178 -2.964507 
5.234916 43.074902 4.620538 2.783470 -0.799837 38.974701 -15.075100 -2.615810 3.240860 19.471701 -2.362860 1.363060 24.358999 2.932260 6.923960 13.441900 6.840940 3.772050 2.000000 -2.000000 0.000000 -80.957199 -1.661890 158.294998 20.791300 -0.342661 0.048590 0.045021 -0.011149 -140.906006 -2.000000 2.000000 0.000000 -97.167198 -173.636993 -1.764280 -45.605900 0.310495 0.097694 -0.054442 0.003747 -138.259995 -9.146684 -7.030886 -5.960975 27.825737 2.661744 2.133026 -15.389654 3.794066 -1.675231 -26.548143 6.399642 27.263523 29.691925 -2.298347 -2.402763 -6.976828 -8.437562 -2.600238 
5.689987 43.182030 5.205527 3.321180 -1.306400 41.623199 -14.928600 -2.556910 2.370770 19.637800 -2.470390 0.957539 25.325199 2.630540 7.149370 13.805300 6.813660 3.919190 2.000000 -2.000000 0.000000 -81.622002 -0.985870 159.279007 21.797100 -0.341790 0.050826 0.045161 -0.013003 -141.570007 -2.000000 2.000000 0.000000 -97.567497 -173.285995 -2.077670 -46.338299 0.309238 0.098908 -0.054438 0.003555 -138.190994 -8.657721 -6.775645 -6.547122 26.469257 2.740370 2.035344 -14.692625 1.874412 -2.315131 -26.723066 5.549343 27.694096 24.605844 -2.261118 -2.103982 -7.190658 -10.977838 -3.348586 
6.222482 43.304092 5.844484 3.557320 -2.202780 44.335499 -14.968800 -2.109220 1.489020 19.843100 -2.460750 0.587250 26.216999 2.686620 7.426680 14.132400 6.921660 4.066880 2.000000 -2.000000 0.000000 -82.658096 -0.231316 160.440002 22.392799 -0.341255 0.052143 0.045300 -0.014611 -142.145996 -2.000000 2.000000 0.000000 -98.290100 -172.867996 -2.772100 -46.201599 0.309474 0.098683 -0.054439 0.003610 -138.210999 -8.244020 -6.176552 -7.768396 25.282598 2.777035 1.933969 -14.112683 0.677934 -2.721660 -27.040112 5.070528 26.510944 21.608223 -2.156215 -1.968480 -6.975629 -13.780698 -4.045819 
6.773287 43.307972 6.620506 3.382720 -2.719870 46.528500 -15.061900 -1.407700 1.063210 19.892099 -2.187350 0.464800 26.921801 3.423220 7.492480 14.396300 7.242200 4.070090 2.000000 -2.000000 0.000000 -83.810997 0.414754 161.121994 22.373301 -0.341273 0.052100 0.045323 -0.014856 -142.233994 -2.000000 2.000000 0.000000 -98.875999 -172.216995 -4.004220 -45.400799 0.310844 0.097351 -0.054436 0.003473 -138.162003 -7.555506 -5.567486 -8.642240 25.104902 2.853748 1.884231 -14.152133 -0.135418 -3.052609 -26.590992 4.954844 25.377924 20.543621 -2.084189 -1.919677 -5.944568 -14.932315 -4.087194 
7.358074 43.207550 7.499227 3.568030 -2.563390 48.365299 -15.205100 -0.848844 0.976300 19.960699 -1.699130 0.486414 27.010401 4.400970 7.173410 14.413300 7.520510 3.858280 2.000000 -2.000000 0.000000 -84.251198 0.905290 162.117004 21.797100 -0.341790 0.050826 0.045635 -0.017903 -143.328003 -2.000000 2.000000 0.000000 -98.954399 -171.673996 -5.978260 -43.818802 0.313495 0.094663 -0.054419 0.002571 -137.839996 -6.685176 -5.630554 -9.208093 25.363209 2.915522 1.883858 -14.367043 -1.170725 -3.450811 -25.986752 4.570734 24.321281 21.904486 -2.142423 -1.979793 -5.747885 -15.143069 -3.992690 
